# xmcd
# Copyright (C) 1995-1998 Ti Kan
#
# Track frame offsets:
#       150
#       15541
#       30926
#       43368
#       57859
#
# Disc length: 934 seconds
#
# Revision: 0
# Processed by: cddbd v1.5.2PL0 Copyright (c) Steve Scherf et al.
# Submitted via: CD-Transfer v1.0
#
DISCID=3503a405
DTITLE=Weihnachten 10 - 
DYEAR=10
DGENRE=
TTITLE0=Geschwister Niederbacher/Weihnacht In Den Bergen
TTITLE1=Geschwister Niederbacher/Geh Mit Uns
TTITLE2=Geschwister Niederbacher/Winterträume Auf Dem Schlitten
TTITLE3=Geschwister Niederbacher/Der Gold´ne Stern Von Bethlehem
TTITLE4=Geschwister Niederbacher/Weihnacht Daheim
EXTD=
EXTT0=
EXTT1=
EXTT2=
EXTT3=
EXTT4=
PLAYORDER=
